# File generated by ImageToStl.com - Free Image and 3D model conversion tools

mtllib low_poly_golf_flag_animated.mtl

o obj1
v 0.32153367 -1.95381098 0
v 0.32153367 -1.95381098 -0.02763639
v 0.34107555 -1.95381098 -0.01954187
v 0.32153367 0.21956034 0
v 0.34107555 0.21956034 -0.01954187
v 0.32153367 0.21956034 -0.02763639
v 0.34917006 -1.95381098 0
v 0.34917006 0.21956034 0
v 0.34107555 -1.95381098 0.01954187
v 0.34107555 0.21956034 0.01954187
v 0.32153367 -1.95381098 0.02763639
v 0.32153367 0.21956034 0.02763639
v 0.30199179 -1.95381098 0.01954187
v 0.30199179 0.21956034 0.01954187
v 0.29389729 -1.95381098 -0
v 0.29389729 0.21956034 -0
v 0.30199179 -1.95381098 -0.01954187
v 0.30199179 0.21956034 -0.01954187
v 0.32153367 -1.95381098 -0.02763639
v 0.32153367 0.21956034 -0.02763639
v 0.34107555 0.21956034 -0.01954187
v 0.34107555 -1.95381098 -0.01954187
v 0.34917006 0.21956034 0
v 0.34917006 -1.95381098 0
v 0.34107555 0.21956034 0.01954187
v 0.34107555 -1.95381098 0.01954187
v 0.32153367 0.21956034 0.02763639
v 0.32153367 -1.95381098 0.02763639
v 0.30199179 0.21956034 0.01954187
v 0.30199179 -1.95381098 0.01954187
v 0.29389729 0.21956034 -0
v 0.29389729 -1.95381098 -0
v 0.30199179 0.21956034 -0.01954187
v 0.30199179 -1.95381098 -0.01954187
v 0.32153367 0.21956034 -0.02763639
v 0.32153367 -1.95381098 -0.02763639
vn 0 -1 -0
vn 0 1 -0
vn 0.38268 0 -0.92388
vn 0.92388 0 -0.38268
vn 0.92388 0 0.38268
vn 0.38268 0 0.92388
vn -0.38268 0 0.92388
vn -0.92388 0 0.38268
vn -0.92388 0 -0.38268
vn -0.38268 0 -0.92388
vt 0.75 0.75
vt 0.75 0.51
vt 0.91971 0.58029
vt 0.25 0.75
vt 0.41971 0.58029
vt 0.25 0.51
vt 0.99 0.75
vt 0.49 0.75
vt 0.91971 0.91971
vt 0.41971 0.91971
vt 0.75 0.99
vt 0.25 0.99
vt 0.58029 0.91971
vt 0.08029 0.91971
vt 0.51 0.75
vt 0.01 0.75
vt 0.58029 0.58029
vt 0.08029 0.58029
vt 1 0.5
vt 1 0
vt 0.875 0
vt 0.875 0.5
vt 0.75 0
vt 0.75 0.5
vt 0.625 0
vt 0.625 0.5
vt 0.5 0
vt 0.5 0.5
vt 0.375 0
vt 0.375 0.5
vt 0.25 0
vt 0.25 0.5
vt 0.125 0
vt 0.125 0.5
vt 0 0
vt 0 0.5
usemtl mat0
f 1/1/1 2/2/1 3/3/1
f 4/4/2 5/5/2 6/6/2
f 1/1/1 3/3/1 7/7/1
f 4/4/2 8/8/2 5/5/2
f 1/1/1 7/7/1 9/9/1
f 4/4/2 10/10/2 8/8/2
f 1/1/1 9/9/1 11/11/1
f 4/4/2 12/12/2 10/10/2
f 1/1/1 11/11/1 13/13/1
f 4/4/2 14/14/2 12/12/2
f 1/1/1 13/13/1 15/15/1
f 4/4/2 16/16/2 14/14/2
f 1/1/1 15/15/1 17/17/1
f 4/4/2 18/18/2 16/16/2
f 1/1/1 17/17/1 2/2/1
f 4/4/2 6/6/2 18/18/2
f 19/19/3 20/20/3 21/21/3
f 19/19/3 21/21/3 22/22/3
f 22/22/4 21/21/4 23/23/4
f 22/22/4 23/23/4 24/24/4
f 24/24/5 23/23/5 25/25/5
f 24/24/5 25/25/5 26/26/5
f 26/26/6 25/25/6 27/27/6
f 26/26/6 27/27/6 28/28/6
f 28/28/7 27/27/7 29/29/7
f 28/28/7 29/29/7 30/30/7
f 30/30/8 29/29/8 31/31/8
f 30/30/8 31/31/8 32/32/8
f 32/32/9 31/31/9 33/33/9
f 32/32/9 33/33/9 34/34/9
f 34/34/10 33/33/10 35/35/10
f 34/34/10 35/35/10 36/36/10
# Vertices: 36, normals: 10, texture coordinates: 36, faces: 32

o obj2
v 0.2841036 -0.2841036 -1E-08
v 0.28280076 -0.2413166 -0.00399764
v 0.23355481 -0.28464291 0.01091402
v -0.16826229 -0.30933666 0.03222879
v -0.16127482 -0.26816554 0.04286236
v -0.21891785 -0.3032258 0.04184229
v -0.13486472 -0.30483123 -0.00709855
v -0.12919897 -0.2632436 0.00253613
v -0.09988894 -0.30004005 -0.04494921
v -0.10043952 -0.25722773 -0.04000424
v -0.04871532 -0.29804585 -0.05313309
v -0.05084255 -0.25502428 -0.05502543
v -0.00286219 -0.29463428 -0.02926322
v -0.00296615 -0.25200529 -0.03539264
v 0.03684281 -0.28982265 0.00347061
v 0.03679071 -0.2471752 -0.00268038
v 0.08165524 -0.28613899 0.02895979
v 0.08132007 -0.24340189 0.02334091
v 0.13300952 -0.284957 0.03508803
v 0.13225117 -0.24193619 0.03233821
v 0.18356565 -0.28485059 0.0241467
v 0.1831559 -0.24178099 0.0231935
v 0.23255766 -0.24165621 0.00801971
v -0.12402893 -0.22147266 0.01165043
v -0.09985908 -0.21461743 -0.03353212
v -0.09826948 -0.17218209 -0.02623039
v -0.05306861 -0.21197136 -0.05568893
v -0.05523374 -0.16891671 -0.05492843
v -0.05714741 -0.12591066 -0.05276381
v -0.00331758 -0.20935258 -0.0413549
v -0.00410588 -0.16661191 -0.04669404
v -0.00538693 -0.12375938 -0.05105227
v -0.00714413 -0.08080693 -0.05413209
v 0.03736043 -0.20466017 -0.00973753
v 0.03816729 -0.16222789 -0.01717654
v 0.03890195 -0.11980241 -0.02458473
v 0.0392612 -0.07729524 -0.03152375
v 0.03888819 -0.03461249 -0.03738468
v 0.08115234 -0.20068903 0.01742089
v 0.08120929 -0.15801638 0.01110166
v 0.08152844 -0.11542245 0.00428416
v 0.08206589 -0.07291033 -0.00292297
v 0.08270454 -0.03045428 -0.01032342
v 0.08322728 0.01200737 -0.01759793
v 0.13155649 -0.19896757 0.02882235
v 0.13100211 -0.15603966 0.02477518
v 0.13060982 -0.11315376 0.02020369
v 0.13040418 -0.07032611 0.01503167
v 0.1304125 -0.02758179 0.00918841
v 0.13064972 0.01504774 0.00261954
v 0.13107075 0.05754829 -0.00456089
v 0.18290807 -0.19871141 0.022861
v 0.18260682 -0.15564303 0.02211479
v 0.18225585 -0.11258736 0.0206605
v 0.18190713 -0.06954739 0.01853394
v 0.18159973 -0.02653134 0.0156937
v 0.18137329 0.01643963 0.01200109
v 0.18126394 0.05932983 0.00736385
v 0.18137337 0.10201331 0.00116227
v 0.23243594 -0.19856593 0.00811925
v 0.23268397 -0.15551379 0.00941027
v 0.23291742 -0.11246792 0.01059411
v 0.23303558 -0.06940453 0.01129858
v 0.23305394 -0.02631632 0.01153922
v 0.23297179 0.01680089 0.01113305
v 0.23280786 0.05993449 0.0097306
v 0.23264143 0.10302538 0.00686431
v 0.23260809 0.14591837 0.00177382
v 0.28250211 -0.19833111 -0.00451839
v 0.28275936 -0.15533663 -0.00318615
v 0.28313415 -0.11232686 -0.00144978
v 0.28350109 -0.06929067 0.00033239
v 0.2838363 -0.02622692 0.00214994
v 0.28409656 0.01687109 0.00386268
v 0.28421344 0.06002176 0.00497857
v 0.2841898 0.10322969 0.00490156
v 0.28410299 0.14648259 0.00326411
v 0.2841036 0.18977653 1E-08
vn 0.20906 0.97305 -0.09728
vn 0.14786 0.95122 0.27077
vn 0.75278 0.6113 0.24418
vn 0.73703 0.67242 0.06819
vn 0.15577 0.98647 -0.05109
vn -0.46543 0.87623 -0.12485
vn -0.64016 0.76048 -0.1089
vn -0.49822 0.86015 -0.10918
vn -0.11966 0.99093 -0.06123
vn 0.21142 0.97711 -0.02364
vn 0.25498 0.96435 -0.07084
vn 0.7678 0.57663 0.27924
vn 0.77578 0.58964 0.22468
vn 0.82065 0.52189 0.23271
vn 0.83089 0.54834 0.09461
vn 0.87578 0.43755 0.20387
vn 0.8832 0.45555 0.11147
vn 0.29254 0.95036 0.10601
vn 0.28853 0.95701 -0.02967
vn 0.4302 0.89161 0.14129
vn 0.42771 0.9039 -0.00554
vn 0.55599 0.81542 0.16113
vn 0.55562 0.83126 0.01712
vn -0.3805 0.92452 -0.02185
vn -0.38317 0.91521 -0.12478
vn -0.27688 0.96091 -0.00049
vn -0.28058 0.95305 -0.11388
vn -0.15784 0.98714 0.02537
vn -0.16246 0.98213 -0.09503
vn -0.03086 0.99819 0.05162
vn -0.03587 0.9969 -0.07001
vn -0.63945 0.76122 -0.10789
vn -0.6393 0.75715 -0.13425
vn -0.61781 0.77944 -0.10386
vn -0.61753 0.77265 -0.1472
vn -0.57645 0.81207 -0.09081
vn -0.57643 0.80322 -0.15024
vn -0.51637 0.85339 -0.07136
vn -0.51711 0.84403 -0.14215
vn -0.44034 0.89664 -0.04628
vn -0.44212 0.88913 -0.11823
vn -0.50845 0.85236 -0.12231
vn -0.50844 0.85321 -0.11626
vn -0.53093 0.8348 -0.14568
vn -0.53107 0.83808 -0.12482
vn -0.55302 0.8188 -0.15406
vn -0.55325 0.82189 -0.1357
vn -0.56491 0.81114 -0.15142
vn -0.565 0.81228 -0.14485
vn -0.55998 0.81691 -0.13809
vn -0.55985 0.81482 -0.15045
vn -0.52982 0.84084 -0.11083
vn -0.52979 0.83484 -0.14955
vn -0.1761 0.97615 -0.12696
vn -0.1756 0.98141 -0.07746
vn -0.22299 0.96571 -0.13297
vn -0.22264 0.97086 -0.08866
vn -0.26736 0.95315 -0.14151
vn -0.26716 0.95848 -0.09973
vn -0.31129 0.938 -0.15247
vn -0.31127 0.94364 -0.11246
vn -0.35121 0.92238 -0.16081
vn -0.35133 0.92761 -0.12688
vn -0.38186 0.9095 -0.16428
vn -0.38202 0.91305 -0.14282
vn -0.39579 0.90433 -0.1598
vn -0.39581 0.90485 -0.15679
vn 0.17623 0.98214 -0.06588
vn 0.17678 0.98421 -0.00862
vn 0.11451 0.98996 -0.08285
vn 0.11521 0.99318 -0.01801
vn 0.05053 0.99425 -0.09439
vn 0.05119 0.99811 -0.03413
vn -0.00996 0.99433 -0.1059
vn -0.00937 0.99874 -0.04927
vn -0.06916 0.99045 -0.11928
vn -0.06868 0.9955 -0.06524
vn -0.12764 0.98268 -0.13436
vn -0.12733 0.98828 -0.08425
vn -0.18379 0.97135 -0.1507
vn -0.18365 0.97735 -0.1052
vn -0.23352 0.95838 -0.16423
vn -0.23357 0.96215 -0.14039
vn 0.29347 0.95567 -0.02394
vn 0.29362 0.95592 0.00138
vn 0.28524 0.95841 -0.00904
vn 0.28523 0.95798 0.03037
vn 0.24582 0.96914 -0.01851
vn 0.24588 0.9689 0.02798
vn 0.19469 0.98025 -0.0347
vn 0.1949 0.98068 0.01658
vn 0.13981 0.98892 -0.04999
vn 0.14013 0.99012 0.00559
vn 0.08003 0.99459 -0.06624
vn 0.08044 0.99671 -0.00954
vn 0.01616 0.99619 -0.08569
vn 0.01658 0.99933 -0.03256
vn -0.04686 0.99313 -0.10726
vn -0.04654 0.99673 -0.06612
vn -0.11219 0.98332 -0.14316
vn -0.11206 0.98679 -0.11702
vn 0.23159 0.97024 -0.0707
vn 0.23252 0.9725 -0.0134
vn 0.24475 0.96959 0.00155
vn 0.24476 0.96907 0.03149
vn 0.24394 0.96931 0.03047
vn 0.24388 0.96893 0.04124
vn 0.23321 0.97202 0.028
vn 0.23313 0.97153 0.04222
vn 0.21235 0.97705 0.01657
vn 0.21224 0.97628 0.04286
vn 0.18182 0.98332 0.00557
vn 0.18173 0.98253 0.04014
vn 0.14077 0.99 -0.00959
vn 0.14078 0.9897 0.02598
vn 0.09195 0.99523 -0.03271
vn 0.09205 0.99575 -0.00183
vn 0.0377 0.99708 -0.06647
vn 0.03787 0.99856 -0.03788
vn -0.03002 0.99259 -0.11778
vn -0.02967 0.99673 -0.07515
vt 0 1
usemtl mat1
f 37/37/11 38/37/11 39/37/11
f 40/37/12 41/37/12 42/37/12
f 43/37/13 44/37/13 40/37/13
f 45/37/14 46/37/14 43/37/14
f 47/37/15 48/37/15 45/37/15
f 49/37/16 50/37/16 47/37/16
f 51/37/17 52/37/17 49/37/17
f 53/37/18 54/37/18 51/37/18
f 55/37/19 56/37/19 53/37/19
f 57/37/20 58/37/20 55/37/20
f 39/37/21 59/37/21 57/37/21
f 40/37/22 44/37/22 41/37/22
f 44/37/23 60/37/23 41/37/23
f 43/37/24 46/37/24 44/37/24
f 46/37/25 61/37/25 44/37/25
f 44/37/26 61/37/26 60/37/26
f 61/37/27 62/37/27 60/37/27
f 45/37/28 48/37/28 46/37/28
f 48/37/29 63/37/29 46/37/29
f 46/37/30 63/37/30 61/37/30
f 63/37/31 64/37/31 61/37/31
f 61/37/32 64/37/32 62/37/32
f 64/37/33 65/37/33 62/37/33
f 47/37/34 50/37/34 48/37/34
f 50/37/35 66/37/35 48/37/35
f 48/37/36 66/37/36 63/37/36
f 66/37/37 67/37/37 63/37/37
f 63/37/38 67/37/38 64/37/38
f 67/37/39 68/37/39 64/37/39
f 64/37/40 68/37/40 65/37/40
f 68/37/41 69/37/41 65/37/41
f 49/37/42 52/37/42 50/37/42
f 52/37/43 70/37/43 50/37/43
f 50/37/44 70/37/44 66/37/44
f 70/37/45 71/37/45 66/37/45
f 66/37/46 71/37/46 67/37/46
f 71/37/47 72/37/47 67/37/47
f 67/37/48 72/37/48 68/37/48
f 72/37/49 73/37/49 68/37/49
f 68/37/50 73/37/50 69/37/50
f 73/37/51 74/37/51 69/37/51
f 51/37/52 54/37/52 52/37/52
f 54/37/53 75/37/53 52/37/53
f 52/37/54 75/37/54 70/37/54
f 75/37/55 76/37/55 70/37/55
f 70/37/56 76/37/56 71/37/56
f 76/37/57 77/37/57 71/37/57
f 71/37/58 77/37/58 72/37/58
f 77/37/59 78/37/59 72/37/59
f 72/37/60 78/37/60 73/37/60
f 78/37/61 79/37/61 73/37/61
f 73/37/62 79/37/62 74/37/62
f 79/37/63 80/37/63 74/37/63
f 53/37/64 56/37/64 54/37/64
f 56/37/65 81/37/65 54/37/65
f 54/37/66 81/37/66 75/37/66
f 81/37/67 82/37/67 75/37/67
f 75/37/68 82/37/68 76/37/68
f 82/37/69 83/37/69 76/37/69
f 76/37/70 83/37/70 77/37/70
f 83/37/71 84/37/71 77/37/71
f 77/37/72 84/37/72 78/37/72
f 84/37/73 85/37/73 78/37/73
f 78/37/74 85/37/74 79/37/74
f 85/37/75 86/37/75 79/37/75
f 79/37/76 86/37/76 80/37/76
f 86/37/77 87/37/77 80/37/77
f 55/37/78 58/37/78 56/37/78
f 58/37/79 88/37/79 56/37/79
f 56/37/80 88/37/80 81/37/80
f 88/37/81 89/37/81 81/37/81
f 81/37/82 89/37/82 82/37/82
f 89/37/83 90/37/83 82/37/83
f 82/37/84 90/37/84 83/37/84
f 90/37/85 91/37/85 83/37/85
f 83/37/86 91/37/86 84/37/86
f 91/37/87 92/37/87 84/37/87
f 84/37/88 92/37/88 85/37/88
f 92/37/89 93/37/89 85/37/89
f 85/37/90 93/37/90 86/37/90
f 93/37/91 94/37/91 86/37/91
f 86/37/92 94/37/92 87/37/92
f 94/37/93 95/37/93 87/37/93
f 57/37/94 59/37/94 58/37/94
f 59/37/95 96/37/95 58/37/95
f 58/37/96 96/37/96 88/37/96
f 96/37/97 97/37/97 88/37/97
f 88/37/98 97/37/98 89/37/98
f 97/37/99 98/37/99 89/37/99
f 89/37/100 98/37/100 90/37/100
f 98/37/101 99/37/101 90/37/101
f 90/37/102 99/37/102 91/37/102
f 99/37/103 100/37/103 91/37/103
f 91/37/104 100/37/104 92/37/104
f 100/37/105 101/37/105 92/37/105
f 92/37/106 101/37/106 93/37/106
f 101/37/107 102/37/107 93/37/107
f 93/37/108 102/37/108 94/37/108
f 102/37/109 103/37/109 94/37/109
f 94/37/110 103/37/110 95/37/110
f 103/37/111 104/37/111 95/37/111
f 39/37/112 38/37/112 59/37/112
f 38/37/113 105/37/113 59/37/113
f 59/37/114 105/37/114 96/37/114
f 105/37/115 106/37/115 96/37/115
f 96/37/116 106/37/116 97/37/116
f 106/37/117 107/37/117 97/37/117
f 97/37/118 107/37/118 98/37/118
f 107/37/119 108/37/119 98/37/119
f 98/37/120 108/37/120 99/37/120
f 108/37/121 109/37/121 99/37/121
f 99/37/122 109/37/122 100/37/122
f 109/37/123 110/37/123 100/37/123
f 100/37/124 110/37/124 101/37/124
f 110/37/125 111/37/125 101/37/125
f 101/37/126 111/37/126 102/37/126
f 111/37/127 112/37/127 102/37/127
f 102/37/128 112/37/128 103/37/128
f 112/37/129 113/37/129 103/37/129
f 103/37/130 113/37/130 104/37/130
f 113/37/131 114/37/131 104/37/131
# Vertices: 78, normals: 121, texture coordinates: 1, faces: 121

